<mxfile host="65bd71144e">
    <diagram id="qcuYtF2ncgr94d97NXTd" name="Page-1">
        <mxGraphModel dx="1216" dy="491" grid="1" gridSize="10" guides="1" tooltips="1" connect="1" arrows="1" fold="1" page="1" pageScale="1" pageWidth="850" pageHeight="1100" math="0" shadow="0">
            <root>
                <mxCell id="0"/>
                <mxCell id="1" parent="0"/>
                <mxCell id="4" style="edgeStyle=none;html=1;" edge="1" parent="1" source="2" target="3">
                    <mxGeometry relative="1" as="geometry"/>
                </mxCell>
                <mxCell id="2" value="START" style="ellipse;whiteSpace=wrap;html=1;" vertex="1" parent="1">
                    <mxGeometry x="95" y="20" width="120" height="80" as="geometry"/>
                </mxCell>
                <mxCell id="6" style="edgeStyle=none;html=1;" edge="1" parent="1" source="3" target="5">
                    <mxGeometry relative="1" as="geometry"/>
                </mxCell>
                <mxCell id="3" value="secret(a: {17, 10, 4, 3, 8}, p: 0)" style="whiteSpace=wrap;html=1;" vertex="1" parent="1">
                    <mxGeometry x="60" y="140" width="190" height="60" as="geometry"/>
                </mxCell>
                <mxCell id="5" value="p == a.length - 1" style="rhombus;whiteSpace=wrap;html=1;" vertex="1" parent="1">
                    <mxGeometry x="90" y="250" width="130" height="80" as="geometry"/>
                </mxCell>
                <mxCell id="7" value="" style="edgeStyle=segmentEdgeStyle;endArrow=classic;html=1;curved=0;rounded=0;endSize=8;startSize=8;sourcePerimeterSpacing=0;targetPerimeterSpacing=0;" edge="1" parent="1" source="5">
                    <mxGeometry width="100" relative="1" as="geometry">
                        <mxPoint x="65" y="350" as="sourcePoint"/>
                        <mxPoint x="165" y="420" as="targetPoint"/>
                        <Array as="points">
                            <mxPoint x="65" y="290"/>
                            <mxPoint x="65" y="380"/>
                            <mxPoint x="165" y="380"/>
                        </Array>
                    </mxGeometry>
                </mxCell>
                <mxCell id="8" value="false" style="text;html=1;align=center;verticalAlign=middle;resizable=0;points=[];autosize=1;strokeColor=none;fillColor=none;" vertex="1" parent="1">
                    <mxGeometry x="10" y="310" width="50" height="30" as="geometry"/>
                </mxCell>
                <mxCell id="12" style="edgeStyle=none;html=1;" edge="1" parent="1" source="9">
                    <mxGeometry relative="1" as="geometry">
                        <mxPoint x="400" y="520" as="targetPoint"/>
                    </mxGeometry>
                </mxCell>
                <mxCell id="9" value="check(a: {17, 10, 4, 3, 8}, p: 1, q: 4)" style="whiteSpace=wrap;html=1;" vertex="1" parent="1">
                    <mxGeometry x="295" y="420" width="210" height="60" as="geometry"/>
                </mxCell>
                <mxCell id="22" style="edgeStyle=none;html=1;" edge="1" parent="1" source="10" target="14">
                    <mxGeometry relative="1" as="geometry"/>
                </mxCell>
                <mxCell id="10" value="secret(a: {17, 10, 4, 3, 8}, p: 1)" style="whiteSpace=wrap;html=1;" vertex="1" parent="1">
                    <mxGeometry x="75" y="420" width="190" height="60" as="geometry"/>
                </mxCell>
                <mxCell id="11" value="" style="edgeStyle=segmentEdgeStyle;endArrow=classic;html=1;curved=0;rounded=0;endSize=8;startSize=8;sourcePerimeterSpacing=0;targetPerimeterSpacing=0;" edge="1" parent="1" source="5" target="9">
                    <mxGeometry width="100" relative="1" as="geometry">
                        <mxPoint x="165" y="370" as="sourcePoint"/>
                        <mxPoint x="285" y="450" as="targetPoint"/>
                        <Array as="points">
                            <mxPoint x="65" y="290"/>
                            <mxPoint x="65" y="380"/>
                            <mxPoint x="395" y="380"/>
                        </Array>
                    </mxGeometry>
                </mxCell>
                <mxCell id="66" style="edgeStyle=none;html=1;" edge="1" parent="1" source="13" target="64">
                    <mxGeometry relative="1" as="geometry"/>
                </mxCell>
                <mxCell id="13" value="3.5" style="shape=parallelogram;perimeter=parallelogramPerimeter;whiteSpace=wrap;html=1;fixedSize=1;" vertex="1" parent="1">
                    <mxGeometry x="340" y="520" width="120" height="60" as="geometry"/>
                </mxCell>
                <mxCell id="14" value="p == a.length - 1" style="rhombus;whiteSpace=wrap;html=1;" vertex="1" parent="1">
                    <mxGeometry x="105" y="530" width="130" height="80" as="geometry"/>
                </mxCell>
                <mxCell id="15" value="" style="edgeStyle=segmentEdgeStyle;endArrow=classic;html=1;curved=0;rounded=0;endSize=8;startSize=8;sourcePerimeterSpacing=0;targetPerimeterSpacing=0;" edge="1" source="14" parent="1">
                    <mxGeometry width="100" relative="1" as="geometry">
                        <mxPoint x="75" y="630" as="sourcePoint"/>
                        <mxPoint x="175" y="700" as="targetPoint"/>
                        <Array as="points">
                            <mxPoint x="75" y="570"/>
                            <mxPoint x="75" y="660"/>
                            <mxPoint x="175" y="660"/>
                        </Array>
                    </mxGeometry>
                </mxCell>
                <mxCell id="16" value="false" style="text;html=1;align=center;verticalAlign=middle;resizable=0;points=[];autosize=1;strokeColor=none;fillColor=none;" vertex="1" parent="1">
                    <mxGeometry x="20" y="590" width="50" height="30" as="geometry"/>
                </mxCell>
                <mxCell id="17" style="edgeStyle=none;html=1;" edge="1" source="18" parent="1">
                    <mxGeometry relative="1" as="geometry">
                        <mxPoint x="410" y="800" as="targetPoint"/>
                    </mxGeometry>
                </mxCell>
                <mxCell id="18" value="check(a: {17, 10, 4, 3, 8}, p: 2, q: 4)" style="whiteSpace=wrap;html=1;" vertex="1" parent="1">
                    <mxGeometry x="305" y="700" width="210" height="60" as="geometry"/>
                </mxCell>
                <mxCell id="19" value="secret(a: {17, 10, 4, 3, 8}, p: 2)" style="whiteSpace=wrap;html=1;" vertex="1" parent="1">
                    <mxGeometry x="85" y="700" width="190" height="60" as="geometry"/>
                </mxCell>
                <mxCell id="20" value="" style="edgeStyle=segmentEdgeStyle;endArrow=classic;html=1;curved=0;rounded=0;endSize=8;startSize=8;sourcePerimeterSpacing=0;targetPerimeterSpacing=0;" edge="1" source="14" target="18" parent="1">
                    <mxGeometry width="100" relative="1" as="geometry">
                        <mxPoint x="175" y="650" as="sourcePoint"/>
                        <mxPoint x="295" y="730" as="targetPoint"/>
                        <Array as="points">
                            <mxPoint x="75" y="570"/>
                            <mxPoint x="75" y="660"/>
                            <mxPoint x="405" y="660"/>
                        </Array>
                    </mxGeometry>
                </mxCell>
                <mxCell id="61" style="edgeStyle=none;html=1;" edge="1" parent="1" source="21" target="60">
                    <mxGeometry relative="1" as="geometry"/>
                </mxCell>
                <mxCell id="21" value="3" style="shape=parallelogram;perimeter=parallelogramPerimeter;whiteSpace=wrap;html=1;fixedSize=1;" vertex="1" parent="1">
                    <mxGeometry x="350" y="800" width="120" height="60" as="geometry"/>
                </mxCell>
                <mxCell id="23" style="edgeStyle=none;html=1;" edge="1" parent="1" target="24">
                    <mxGeometry relative="1" as="geometry">
                        <mxPoint x="180" y="760" as="sourcePoint"/>
                    </mxGeometry>
                </mxCell>
                <mxCell id="24" value="p == a.length - 1" style="rhombus;whiteSpace=wrap;html=1;" vertex="1" parent="1">
                    <mxGeometry x="115" y="810" width="130" height="80" as="geometry"/>
                </mxCell>
                <mxCell id="25" value="" style="edgeStyle=segmentEdgeStyle;endArrow=classic;html=1;curved=0;rounded=0;endSize=8;startSize=8;sourcePerimeterSpacing=0;targetPerimeterSpacing=0;" edge="1" parent="1" source="24">
                    <mxGeometry width="100" relative="1" as="geometry">
                        <mxPoint x="90" y="910" as="sourcePoint"/>
                        <mxPoint x="190" y="980" as="targetPoint"/>
                        <Array as="points">
                            <mxPoint x="90" y="850"/>
                            <mxPoint x="90" y="940"/>
                            <mxPoint x="190" y="940"/>
                        </Array>
                    </mxGeometry>
                </mxCell>
                <mxCell id="26" value="false" style="text;html=1;align=center;verticalAlign=middle;resizable=0;points=[];autosize=1;strokeColor=none;fillColor=none;" vertex="1" parent="1">
                    <mxGeometry x="35" y="870" width="50" height="30" as="geometry"/>
                </mxCell>
                <mxCell id="27" style="edgeStyle=none;html=1;" edge="1" parent="1" source="28" target="32">
                    <mxGeometry relative="1" as="geometry">
                        <mxPoint x="425" y="1080" as="targetPoint"/>
                    </mxGeometry>
                </mxCell>
                <mxCell id="28" value="check(a: {17, 10, 4, 3, 8}, p: 3, q: 4)" style="whiteSpace=wrap;html=1;" vertex="1" parent="1">
                    <mxGeometry x="320" y="980" width="210" height="60" as="geometry"/>
                </mxCell>
                <mxCell id="30" value="secret(a: {17, 10, 4, 3, 8}, p: 3)" style="whiteSpace=wrap;html=1;" vertex="1" parent="1">
                    <mxGeometry x="100" y="980" width="190" height="60" as="geometry"/>
                </mxCell>
                <mxCell id="31" value="" style="edgeStyle=segmentEdgeStyle;endArrow=classic;html=1;curved=0;rounded=0;endSize=8;startSize=8;sourcePerimeterSpacing=0;targetPerimeterSpacing=0;" edge="1" parent="1" source="24" target="28">
                    <mxGeometry width="100" relative="1" as="geometry">
                        <mxPoint x="190" y="930" as="sourcePoint"/>
                        <mxPoint x="310" y="1010" as="targetPoint"/>
                        <Array as="points">
                            <mxPoint x="90" y="850"/>
                            <mxPoint x="90" y="940"/>
                            <mxPoint x="420" y="940"/>
                        </Array>
                    </mxGeometry>
                </mxCell>
                <mxCell id="55" style="edgeStyle=none;html=1;" edge="1" parent="1" source="32" target="54">
                    <mxGeometry relative="1" as="geometry"/>
                </mxCell>
                <mxCell id="32" value="5.5" style="shape=parallelogram;perimeter=parallelogramPerimeter;whiteSpace=wrap;html=1;fixedSize=1;" vertex="1" parent="1">
                    <mxGeometry x="365" y="1130" width="120" height="60" as="geometry"/>
                </mxCell>
                <mxCell id="33" style="edgeStyle=none;html=1;" edge="1" parent="1" target="34" source="30">
                    <mxGeometry relative="1" as="geometry">
                        <mxPoint x="190" y="1040" as="sourcePoint"/>
                    </mxGeometry>
                </mxCell>
                <mxCell id="34" value="p == a.length - 1" style="rhombus;whiteSpace=wrap;html=1;" vertex="1" parent="1">
                    <mxGeometry x="130" y="1120" width="130" height="80" as="geometry"/>
                </mxCell>
                <mxCell id="35" value="" style="edgeStyle=segmentEdgeStyle;endArrow=classic;html=1;curved=0;rounded=0;endSize=8;startSize=8;sourcePerimeterSpacing=0;targetPerimeterSpacing=0;" edge="1" parent="1" source="34">
                    <mxGeometry width="100" relative="1" as="geometry">
                        <mxPoint x="100" y="1190" as="sourcePoint"/>
                        <mxPoint x="200" y="1260" as="targetPoint"/>
                        <Array as="points">
                            <mxPoint x="100" y="1160"/>
                            <mxPoint x="100" y="1220"/>
                            <mxPoint x="200" y="1220"/>
                        </Array>
                    </mxGeometry>
                </mxCell>
                <mxCell id="36" value="false" style="text;html=1;align=center;verticalAlign=middle;resizable=0;points=[];autosize=1;strokeColor=none;fillColor=none;" vertex="1" parent="1">
                    <mxGeometry x="45" y="1150" width="50" height="30" as="geometry"/>
                </mxCell>
                <mxCell id="37" style="edgeStyle=none;html=1;" edge="1" parent="1" source="38">
                    <mxGeometry relative="1" as="geometry">
                        <mxPoint x="435" y="1360" as="targetPoint"/>
                    </mxGeometry>
                </mxCell>
                <mxCell id="38" value="check(a: {17, 10, 4, 3, 8}, p: 4, q: 4)" style="whiteSpace=wrap;html=1;" vertex="1" parent="1">
                    <mxGeometry x="330" y="1260" width="210" height="60" as="geometry"/>
                </mxCell>
                <mxCell id="39" style="edgeStyle=none;html=1;" edge="1" parent="1" source="40">
                    <mxGeometry relative="1" as="geometry">
                        <mxPoint x="205" y="1370" as="targetPoint"/>
                    </mxGeometry>
                </mxCell>
                <mxCell id="40" value="secret(a: {17, 10, 4, 3, 8}, p: 4)" style="whiteSpace=wrap;html=1;" vertex="1" parent="1">
                    <mxGeometry x="110" y="1260" width="190" height="60" as="geometry"/>
                </mxCell>
                <mxCell id="41" value="" style="edgeStyle=segmentEdgeStyle;endArrow=classic;html=1;curved=0;rounded=0;endSize=8;startSize=8;sourcePerimeterSpacing=0;targetPerimeterSpacing=0;" edge="1" parent="1" source="34" target="38">
                    <mxGeometry width="100" relative="1" as="geometry">
                        <mxPoint x="200" y="1210" as="sourcePoint"/>
                        <mxPoint x="320" y="1290" as="targetPoint"/>
                        <Array as="points">
                            <mxPoint x="100" y="1160"/>
                            <mxPoint x="100" y="1220"/>
                            <mxPoint x="430" y="1220"/>
                        </Array>
                    </mxGeometry>
                </mxCell>
                <mxCell id="42" value="8" style="shape=parallelogram;perimeter=parallelogramPerimeter;whiteSpace=wrap;html=1;fixedSize=1;" vertex="1" parent="1">
                    <mxGeometry x="375" y="1360" width="120" height="60" as="geometry"/>
                </mxCell>
                <mxCell id="43" value="p == a.length - 1" style="rhombus;whiteSpace=wrap;html=1;" vertex="1" parent="1">
                    <mxGeometry x="140" y="1370" width="130" height="80" as="geometry"/>
                </mxCell>
                <mxCell id="44" value="" style="edgeStyle=segmentEdgeStyle;endArrow=classic;html=1;curved=0;rounded=0;endSize=8;startSize=8;sourcePerimeterSpacing=0;targetPerimeterSpacing=0;" edge="1" parent="1" source="43">
                    <mxGeometry width="100" relative="1" as="geometry">
                        <mxPoint x="135" y="1410" as="sourcePoint"/>
                        <mxPoint x="205" y="1510" as="targetPoint"/>
                        <Array as="points">
                            <mxPoint x="305" y="1410"/>
                            <mxPoint x="305" y="1480"/>
                            <mxPoint x="205" y="1480"/>
                        </Array>
                    </mxGeometry>
                </mxCell>
                <mxCell id="45" value="true" style="text;html=1;align=center;verticalAlign=middle;resizable=0;points=[];autosize=1;strokeColor=none;fillColor=none;" vertex="1" parent="1">
                    <mxGeometry x="310" y="1430" width="40" height="30" as="geometry"/>
                </mxCell>
                <mxCell id="46" value="true" style="shape=parallelogram;perimeter=parallelogramPerimeter;whiteSpace=wrap;html=1;fixedSize=1;" vertex="1" parent="1">
                    <mxGeometry x="140" y="1510" width="120" height="60" as="geometry"/>
                </mxCell>
                <mxCell id="53" style="edgeStyle=none;html=1;" edge="1" parent="1" source="47" target="52">
                    <mxGeometry relative="1" as="geometry"/>
                </mxCell>
                <mxCell id="47" value="3 &amp;gt; 8 &amp;amp;&amp;amp; true" style="rhombus;whiteSpace=wrap;html=1;" vertex="1" parent="1">
                    <mxGeometry x="590" y="1405" width="100" height="80" as="geometry"/>
                </mxCell>
                <mxCell id="49" value="" style="edgeStyle=segmentEdgeStyle;endArrow=classic;html=1;curved=0;rounded=0;endSize=8;startSize=8;sourcePerimeterSpacing=0;targetPerimeterSpacing=0;" edge="1" parent="1" source="46" target="47">
                    <mxGeometry width="100" relative="1" as="geometry">
                        <mxPoint x="490" y="1600" as="sourcePoint"/>
                        <mxPoint x="590" y="1640" as="targetPoint"/>
                        <Array as="points">
                            <mxPoint x="430" y="1540"/>
                            <mxPoint x="430" y="1445"/>
                        </Array>
                    </mxGeometry>
                </mxCell>
                <mxCell id="50" value="" style="edgeStyle=segmentEdgeStyle;endArrow=classic;html=1;curved=0;rounded=0;endSize=8;startSize=8;sourcePerimeterSpacing=0;targetPerimeterSpacing=0;" edge="1" parent="1" source="42" target="47">
                    <mxGeometry width="100" relative="1" as="geometry">
                        <mxPoint x="460" y="1400" as="sourcePoint"/>
                        <mxPoint x="560" y="1440" as="targetPoint"/>
                        <Array as="points">
                            <mxPoint x="430" y="1445"/>
                        </Array>
                    </mxGeometry>
                </mxCell>
                <mxCell id="51" value="false" style="text;html=1;align=center;verticalAlign=middle;resizable=0;points=[];autosize=1;strokeColor=none;fillColor=none;" vertex="1" parent="1">
                    <mxGeometry x="640" y="1370" width="50" height="30" as="geometry"/>
                </mxCell>
                <mxCell id="52" value="false" style="shape=parallelogram;perimeter=parallelogramPerimeter;whiteSpace=wrap;html=1;fixedSize=1;" vertex="1" parent="1">
                    <mxGeometry x="580" y="1260" width="120" height="60" as="geometry"/>
                </mxCell>
                <mxCell id="58" style="edgeStyle=none;html=1;" edge="1" parent="1" source="54" target="57">
                    <mxGeometry relative="1" as="geometry"/>
                </mxCell>
                <mxCell id="54" value="4 &amp;gt; 5.5 &amp;amp;&amp;amp; false" style="rhombus;whiteSpace=wrap;html=1;" vertex="1" parent="1">
                    <mxGeometry x="600" y="1120" width="100" height="80" as="geometry"/>
                </mxCell>
                <mxCell id="56" value="" style="edgeStyle=segmentEdgeStyle;endArrow=classic;html=1;curved=0;rounded=0;endSize=8;startSize=8;sourcePerimeterSpacing=0;targetPerimeterSpacing=0;" edge="1" parent="1" source="52" target="54">
                    <mxGeometry width="100" relative="1" as="geometry">
                        <mxPoint x="640" y="1170" as="sourcePoint"/>
                        <mxPoint x="740" y="1210" as="targetPoint"/>
                        <Array as="points">
                            <mxPoint x="570" y="1290"/>
                            <mxPoint x="570" y="1160"/>
                        </Array>
                    </mxGeometry>
                </mxCell>
                <mxCell id="57" value="false" style="shape=parallelogram;perimeter=parallelogramPerimeter;whiteSpace=wrap;html=1;fixedSize=1;" vertex="1" parent="1">
                    <mxGeometry x="590" y="980" width="120" height="60" as="geometry"/>
                </mxCell>
                <mxCell id="59" value="" style="edgeStyle=segmentEdgeStyle;endArrow=classic;html=1;curved=0;rounded=0;endSize=8;startSize=8;sourcePerimeterSpacing=0;targetPerimeterSpacing=0;" edge="1" parent="1" target="60">
                    <mxGeometry width="100" relative="1" as="geometry">
                        <mxPoint x="600" y="1010" as="sourcePoint"/>
                        <mxPoint x="610" y="880" as="targetPoint"/>
                        <Array as="points">
                            <mxPoint x="580" y="1010"/>
                            <mxPoint x="580" y="830"/>
                        </Array>
                    </mxGeometry>
                </mxCell>
                <mxCell id="63" style="edgeStyle=none;html=1;" edge="1" parent="1" source="60" target="62">
                    <mxGeometry relative="1" as="geometry"/>
                </mxCell>
                <mxCell id="60" value="10 &amp;gt; 3 &amp;amp;&amp;amp; false" style="rhombus;whiteSpace=wrap;html=1;" vertex="1" parent="1">
                    <mxGeometry x="610" y="790" width="100" height="80" as="geometry"/>
                </mxCell>
                <mxCell id="62" value="false" style="shape=parallelogram;perimeter=parallelogramPerimeter;whiteSpace=wrap;html=1;fixedSize=1;" vertex="1" parent="1">
                    <mxGeometry x="600" y="700" width="120" height="60" as="geometry"/>
                </mxCell>
                <mxCell id="68" style="edgeStyle=none;html=1;" edge="1" parent="1" source="64" target="67">
                    <mxGeometry relative="1" as="geometry"/>
                </mxCell>
                <mxCell id="64" value="17 &amp;gt; 3.5 &amp;amp;&amp;amp; false" style="rhombus;whiteSpace=wrap;html=1;" vertex="1" parent="1">
                    <mxGeometry x="610" y="510" width="125" height="80" as="geometry"/>
                </mxCell>
                <mxCell id="65" value="" style="edgeStyle=segmentEdgeStyle;endArrow=classic;html=1;curved=0;rounded=0;endSize=8;startSize=8;sourcePerimeterSpacing=0;targetPerimeterSpacing=0;" edge="1" parent="1" target="64">
                    <mxGeometry width="100" relative="1" as="geometry">
                        <mxPoint x="610" y="730" as="sourcePoint"/>
                        <mxPoint x="620" y="550" as="targetPoint"/>
                        <Array as="points">
                            <mxPoint x="570" y="730"/>
                            <mxPoint x="570" y="550"/>
                        </Array>
                    </mxGeometry>
                </mxCell>
                <mxCell id="70" style="edgeStyle=none;html=1;" edge="1" parent="1" source="67" target="69">
                    <mxGeometry relative="1" as="geometry"/>
                </mxCell>
                <mxCell id="67" value="false" style="shape=parallelogram;perimeter=parallelogramPerimeter;whiteSpace=wrap;html=1;fixedSize=1;" vertex="1" parent="1">
                    <mxGeometry x="615" y="420" width="120" height="60" as="geometry"/>
                </mxCell>
                <mxCell id="69" value="END" style="ellipse;whiteSpace=wrap;html=1;" vertex="1" parent="1">
                    <mxGeometry x="615" y="240" width="120" height="80" as="geometry"/>
                </mxCell>
                <mxCell id="71" value="b = {25, 17, 40, 10, 12, 3}" style="text;html=1;align=center;verticalAlign=middle;resizable=0;points=[];autosize=1;strokeColor=none;fillColor=none;" vertex="1" parent="1">
                    <mxGeometry x="415" y="1635" width="160" height="30" as="geometry"/>
                </mxCell>
                <mxCell id="72" value="c = {3, 22, 10, 8,&amp;nbsp; 5, 19}" style="text;html=1;align=center;verticalAlign=middle;resizable=0;points=[];autosize=1;strokeColor=none;fillColor=none;" vertex="1" parent="1">
                    <mxGeometry x="420" y="1690" width="150" height="30" as="geometry"/>
                </mxCell>
                <mxCell id="73" value="check if each element in the array is bigger than the average of the center elements in the rest of the array" style="text;html=1;align=center;verticalAlign=middle;resizable=0;points=[];autosize=1;strokeColor=none;fillColor=none;" vertex="1" parent="1">
                    <mxGeometry x="180" y="1745" width="590" height="30" as="geometry"/>
                </mxCell>
            </root>
        </mxGraphModel>
    </diagram>
</mxfile>